<?xml version="1.0" standalone="no"?><!DOCTYPE svg PUBLIC "-//W3C//DTD SVG 1.1//EN"
        "http://www.w3.org/Graphics/SVG/1.1/DTD/svg11.dtd">
<svg t="1743778666114" class="icon" viewBox="0 0 1024 1024" version="1.1" xmlns="http://www.w3.org/2000/svg" p-id="6450"
     width="200" height="200">
    <path d="M968.09946 347.652286c-7.3545-22.634108 2.396553-83.587696-18.107286-92.831542-74.470652-33.577096-108.250632-46.916638-179.310318-25.512507-104.383179 31.345386-168.341968 132.698004-258.675516 267.196592"
          fill="#F2A2B6" p-id="6451"></path>
    <path d="M968.492545 348.844222c7.3545 22.634108 51.063054 66.21586 39.904503 85.743326-40.500471 70.932884-60.027936 101.54282-130.060528 126.040913-102.886919 35.973649-214.168111-8.406954-366.33018-64.123632"
          fill="#F2A2B6" p-id="6452"></path>
    <path d="M794.520581 884.277181c19.248502-13.94819 80.227451-23.54708 82.687404-45.914905 8.876121-81.153103 11.120511-117.431076-31.142504-178.410025-62.094804-89.585418-178.219823-119.066819-334.059141-163.447422M793.506167 885.012631c-19.248502 13.94819-47.182921 69.030858-69.208381 64.453316-79.986527-16.598346-115.123285-25.702709-160.061816-84.741592-66.012977-86.719699-58.201991-206.306404-52.22963-368.219526"
          fill="#F2A2B6" p-id="6453"></path>
    <path d="M230.506513 885.012631c19.248502 13.94819 47.182921 69.030858 69.208381 64.453316 79.986527-16.598346 115.123285-25.702709 160.061816-84.741592 66.012977-86.719699 58.201991-206.306404 52.22963-368.219526M229.4921 884.277181c-19.248502-13.94819-80.227451-23.54708-82.687404-45.914905-8.876121-81.153103-11.120511-117.431076 31.142503-178.410025 62.094804-89.585418 178.219823-119.066819 334.059141-163.447422"
          fill="#F2A2B6" p-id="6454"></path>
    <path d="M55.520135 348.844222c-7.3545 22.634108-51.063054 66.21586-39.904503 85.743326 40.500471 70.932884 60.027936 101.54282 130.060528 126.040913 102.886919 35.973649 214.168111-8.406954 366.33018-64.123632"
          fill="#F2A2B6" p-id="6455"></path>
    <path d="M55.91322 347.652286c7.3545-22.634108-2.396553-83.587696 18.107286-92.831542 74.470652-33.577096 108.250632-46.916638 179.310318-25.512507 104.383179 31.345386 168.341968 132.698004 258.675516 267.196592"
          fill="#F2A2B6" p-id="6456"></path>
    <path d="M511.372331 16.737828c-23.788003 0-78.74387-28.111942-93.833275-11.412156-54.955867 60.446382-78.033781 88.469563-79.682203 162.648571-2.459953 108.91 74.140968 201.056813 174.149487 328.530586"
          fill="#F2A2B6" p-id="6457"></path>
    <path d="M512.640349 16.737828c23.788003 0 78.74387-28.111942 93.833275-11.412156 54.955867 60.446382 78.033781 88.469563 79.682203 162.648571 2.459953 108.91-74.140968 201.056813-174.149487 328.530586"
          fill="#F2A2B6" p-id="6458"></path>
    <path d="M512.00634 496.504829m-65.936896 0a65.936896 65.936896 0 1 0 131.873792 0 65.936896 65.936896 0 1 0-131.873792 0Z"
          fill="#F2A2B6" p-id="6459"></path>
</svg>